<?xml version="1.0" standalone="no"?>
<!DOCTYPE svg PUBLIC "-//W3C//DTD SVG 20010904//EN"
 "http://www.w3.org/TR/2001/REC-SVG-20010904/DTD/svg10.dtd">
<svg version="1.0" xmlns="http://www.w3.org/2000/svg"
 width="700.000000pt" height="700.000000pt" viewBox="0 0 700.000000 700.000000"
 preserveAspectRatio="xMidYMid meet">
<metadata>
Created by potrace 1.11, written by Peter Selinger 2001-2013
</metadata>
<g transform="translate(0.000000,700.000000) scale(0.100000,-0.100000)"
fill="#000000" stroke="none">
<path d="M0 3500 l0 -3500 3500 0 3500 0 0 3500 0 3500 -3500 0 -3500 0 0
-3500z m3436 2005 c28 -42 -4 -95 -58 -95 -30 0 -30 0 -24 -44 6 -39 5 -44
-16 -49 -12 -4 -23 -5 -24 -4 -1 1 -5 50 -8 110 l-7 107 60 0 c53 0 62 -3 77
-25z m210 4 c21 -17 17 -65 -7 -83 l-21 -14 26 -44 c32 -54 32 -58 4 -58 -17
0 -30 13 -50 48 l-27 47 -1 -42 c0 -41 -1 -43 -31 -43 -24 0 -30 3 -25 16 3 9
6 56 6 106 l0 91 56 -6 c30 -3 62 -11 70 -18z m160 -22 c-3 -16 -6 -63 -6
-104 l0 -74 -27 3 c-21 2 -28 8 -26 23 1 11 5 59 8 106 6 85 7 86 32 81 22 -4
24 -8 19 -35z m-596 12 c0 -18 -3 -19 -14 -9 -20 16 -60 9 -64 -12 -2 -11 9
-23 30 -34 69 -35 84 -67 53 -111 -28 -40 -115 -42 -115 -2 0 23 13 25 30 4
18 -22 54 -15 58 11 2 16 -8 28 -42 48 -50 29 -63 54 -45 88 17 32 28 38 72
38 31 0 37 -3 37 -21z m778 -59 l59 -80 7 31 c3 17 6 49 6 70 0 29 4 39 16 39
13 0 15 -7 11 -28 -3 -16 -9 -63 -13 -105 -5 -55 -11 -77 -20 -77 -8 0 -41 36
-73 80 -65 88 -71 88 -71 -6 0 -43 -3 -54 -16 -54 -17 0 -17 -1 3 163 3 28 11
47 18 47 7 0 40 -36 73 -80z m-1154 23 c2 -10 10 -51 16 -91 l12 -74 34 7 c27
5 34 3 34 -10 0 -9 -9 -15 -22 -15 -13 0 -39 -3 -59 -6 l-36 -6 -11 83 c-7 46
-15 94 -18 107 -5 19 -2 22 19 22 16 0 28 -7 31 -17z m1501 -5 c24 -11 32 -28
19 -40 -3 -4 -14 2 -25 13 -12 12 -33 19 -59 19 -34 0 -42 -4 -55 -30 -8 -16
-15 -47 -15 -68 0 -45 23 -72 66 -75 27 -2 29 1 32 36 3 34 6 37 25 31 12 -3
23 -7 24 -8 1 -1 0 -19 -4 -39 -6 -40 -12 -42 -83 -37 -75 5 -118 56 -107 128
9 54 46 82 107 82 27 0 61 -5 75 -12z m-1650 -100 c33 -50 62 -95 63 -99 2 -5
-9 -9 -26 -9 -21 0 -32 7 -40 25 -19 42 -92 26 -92 -20 0 -23 -16 -42 -26 -32
-5 5 29 182 41 215 8 23 20 11 80 -80z m1915 52 c5 0 10 -34 12 -77 l3 -76 43
62 c24 34 49 60 55 58 15 -5 24 -46 26 -112 l1 -50 41 63 c23 34 48 62 56 62
9 0 11 -5 7 -12 -6 -11 -97 -146 -115 -171 -3 -4 -13 -5 -22 -1 -13 4 -17 23
-19 82 l-3 77 -45 -63 c-64 -91 -74 -83 -77 57 -2 99 -1 112 13 107 9 -3 20
-6 24 -6z m-2160 -40 c24 -24 25 -38 5 -67 -14 -20 -12 -23 26 -58 44 -39 44
-39 13 -49 -15 -4 -29 3 -54 29 -43 45 -54 44 -35 -1 20 -48 19 -51 -10 -56
-22 -5 -26 -1 -35 36 -6 23 -20 68 -30 100 -11 33 -19 60 -17 61 3 3 91 22
105 24 6 0 21 -8 32 -19z m-203 -109 c14 -43 20 -83 17 -98 -8 -31 -59 -63
-100 -63 -40 0 -65 28 -96 111 l-25 67 23 11 c26 12 27 11 43 -44 20 -65 43
-115 55 -116 76 -8 92 30 56 136 -23 68 -24 78 -8 73 7 -3 23 -37 35 -77z
m2773 -97 c0 -63 -3 -114 -7 -114 -20 1 -32 18 -35 50 -3 29 -8 36 -36 44 -28
8 -36 6 -57 -14 -14 -13 -28 -21 -31 -17 -9 8 147 177 158 171 4 -3 8 -57 8
-120z m-3050 65 c0 -5 -6 -9 -12 -9 -39 -1 -39 -16 -2 -99 31 -69 35 -84 23
-92 -19 -12 -39 -11 -39 2 0 6 -14 44 -31 84 -29 71 -31 74 -55 63 -13 -6 -27
-8 -31 -5 -9 10 -7 11 67 45 63 28 80 31 80 11z m1559 -14 c95 -33 235 -162
343 -317 35 -49 68 -97 75 -106 10 -15 15 -14 45 15 55 53 127 83 197 83 120
0 188 -57 381 -320 210 -287 341 -395 516 -423 67 -10 74 -14 74 -34 0 -21 -3
-22 -47 -17 -208 23 -351 124 -539 379 -32 44 -63 83 -69 87 -21 16 -27 7 -11
-17 16 -24 16 -26 -10 -37 -21 -10 -27 -9 -34 2 -46 81 -98 122 -191 150 -32
10 -75 -8 -130 -52 -34 -27 -49 -33 -88 -32 -25 1 -67 11 -93 22 l-47 21 -86
-124 c-47 -68 -108 -144 -136 -170 -48 -45 -118 -84 -150 -85 -12 0 -18 -12
-21 -49 -11 -113 -76 -160 -235 -172 -122 -9 -143 -15 -143 -39 0 -36 37 -43
270 -51 290 -10 371 -25 840 -159 442 -127 667 -164 1155 -195 287 -18 452
-33 491 -45 17 -5 -993 -9 -2320 -9 -1292 -1 -2347 1 -2345 3 12 12 361 34
1064 66 791 37 1109 65 1280 115 89 26 139 69 104 91 -28 17 -99 25 -290 34
-223 10 -283 22 -331 67 -55 52 -44 119 25 155 29 14 77 24 167 32 158 14 199
37 216 122 5 28 3 31 -34 42 -54 16 -131 87 -186 172 -150 229 -137 212 -165
205 -14 -3 -59 -21 -100 -40 -40 -19 -84 -35 -97 -35 -14 0 -48 16 -77 35 -42
29 -61 35 -103 35 l-52 0 -82 -117 c-194 -276 -385 -391 -670 -405 -74 -3 -75
-3 -75 22 0 24 3 25 85 31 276 21 428 121 635 418 55 79 119 161 143 182 74
65 162 81 282 53 23 -5 31 2 77 73 105 161 224 281 325 328 61 28 108 31 167
10z m1692 -21 c35 -14 68 -30 73 -35 16 -15 -4 -24 -25 -11 -11 7 -23 11 -28
8 -4 -3 -20 -38 -36 -78 -34 -88 -37 -93 -63 -79 -21 11 -21 12 8 74 44 98 46
105 15 117 -14 5 -23 14 -20 20 8 13 1 14 76 -16z m-3452 -136 c42 -40 77 -76
79 -80 2 -4 -6 -12 -18 -18 -17 -9 -24 -7 -43 14 -21 24 -24 24 -54 11 -28
-12 -33 -19 -33 -49 0 -70 -17 -43 -23 37 -10 120 -9 157 5 157 6 0 46 -33 87
-72z m3656 40 c25 -12 45 -28 45 -35 0 -11 -7 -10 -31 2 -17 9 -32 15 -34 13
-6 -7 -25 -47 -25 -53 0 -3 11 -10 25 -15 14 -5 25 -15 25 -21 0 -7 -7 -8 -17
-4 -42 17 -49 16 -61 -10 -17 -38 -15 -45 17 -56 18 -7 28 -16 25 -24 -4 -10
-15 -9 -52 7 -26 11 -50 23 -55 27 -8 8 73 191 85 191 4 0 28 -10 53 -22z
m-2566 -101 c24 1 30 -2 22 -10 -20 -20 -11 -33 49 -67 33 -19 60 -37 60 -42
0 -30 -99 -10 -144 30 -14 12 -20 14 -23 5 -6 -18 -28 -16 -44 3 -11 13 -10
17 5 26 17 9 16 12 -13 39 -23 20 -31 37 -31 61 0 61 20 63 54 5 29 -47 35
-52 65 -50z m-1249 -141 c-9 -9 -16 -7 -133 38 l-69 26 36 -65 c24 -45 32 -66
24 -71 -7 -4 -13 -3 -15 3 -2 6 -24 49 -48 96 -53 104 -48 109 66 66 44 -17
82 -29 85 -26 3 3 -9 30 -26 60 -22 40 -27 56 -18 59 17 6 111 -173 98 -186z
m3994 161 c21 -12 45 -31 51 -42 19 -29 2 -64 -34 -71 l-30 -6 6 -60 6 -59
-26 12 c-23 10 -26 19 -29 68 l-3 56 -23 -42 c-21 -40 -24 -42 -47 -31 l-25
11 24 41 c13 23 35 65 50 94 14 28 30 52 34 52 4 0 25 -10 46 -23z m-2554
-507 c25 -49 27 -59 14 -64 -32 -12 -43 -4 -68 50 -31 67 -31 71 -8 77 25 5
30 1 62 -63z m870 -4 c0 -7 9 -25 21 -40 11 -14 16 -26 10 -26 -6 0 3 -22 19
-50 28 -47 28 -50 9 -50 -19 0 -18 -4 14 -65 l35 -65 -24 0 c-13 0 -24 -2 -24
-5 0 -12 60 -124 70 -130 30 -19 -3 -25 -135 -25 -80 0 -145 2 -145 4 0 3 18
39 41 80 l41 76 -26 0 c-14 0 -26 1 -26 3 0 1 14 29 30 62 23 48 26 61 15 63
-19 4 -20 1 12 57 15 27 22 45 15 41 -6 -3 -1 14 11 39 22 45 37 58 37 31z
m664 -112 c32 -54 37 -67 25 -75 -8 -5 -17 -9 -22 -9 -4 0 0 -15 10 -32 9 -18
16 -37 15 -41 -2 -5 11 -31 28 -58 36 -58 36 -59 10 -52 -26 7 -25 3 10 -67
33 -65 45 -77 54 -55 3 9 0 15 -10 15 -12 0 -12 5 3 33 9 17 18 34 18 37 10
39 19 60 24 60 8 0 32 -46 37 -68 1 -7 10 -24 18 -38 15 -21 15 -24 1 -24 -12
0 -10 -10 10 -51 25 -49 25 -50 6 -44 -28 8 -27 1 10 -63 l31 -55 -168 6 c-92
4 -193 7 -225 7 l-58 0 45 78 c24 42 44 81 44 86 0 4 -13 6 -29 4 l-29 -4 38
74 c38 73 38 74 15 69 l-24 -4 26 46 c15 25 31 52 36 59 7 9 5 11 -9 5 -16 -6
-16 -4 3 23 36 51 36 68 3 122 -33 54 -36 68 -17 75 26 11 33 5 71 -59z
m-1465 -24 l22 -40 -23 -9 c-29 -11 -29 -11 -52 34 -17 31 -18 38 -5 46 25 15
35 10 58 -31z m-170 -193 c1 -5 -4 -5 -10 -2 -6 4 -1 -11 10 -34 19 -36 19
-41 5 -41 -13 0 -12 -7 9 -45 l26 -45 -84 0 -84 0 26 45 c21 38 22 45 9 45
-14 0 -14 5 4 39 13 26 16 41 8 43 -7 3 -8 10 0 23 5 11 15 34 22 50 l13 30
23 -50 c12 -27 23 -54 23 -58z m-511 -25 c-4 -2 6 -28 23 -58 30 -52 30 -54
10 -54 -20 0 -20 -1 -4 -37 10 -21 28 -55 40 -75 29 -48 29 -49 -7 -41 -16 3
-30 2 -30 -3 1 -17 85 -167 96 -171 6 -2 25 24 43 57 l32 60 -24 0 -25 0 30
55 c24 45 27 55 13 55 -14 0 -14 3 2 33 10 17 18 37 19 42 3 18 28 75 34 75 5
0 21 -36 31 -68 1 -4 13 -24 26 -44 22 -36 22 -38 4 -38 -18 0 -17 -4 11 -55
28 -53 29 -55 9 -55 -12 0 -21 -2 -21 -5 0 -11 43 -90 58 -107 14 -17 -4 -18
-363 -18 -359 0 -377 1 -363 18 9 9 25 36 37 58 20 41 20 42 1 37 -26 -7 -25
3 5 55 18 32 21 42 9 42 -12 0 -12 5 3 33 9 17 17 39 18 47 1 8 6 24 12 35 10
17 14 12 42 -45 20 -43 26 -67 19 -71 -7 -5 -3 -22 15 -52 23 -42 24 -46 7
-49 -17 -3 -17 -6 -5 -27 13 -25 13 -24 44 37 17 34 31 64 31 68 0 3 -17 3
-37 -1 -36 -6 -37 -6 -21 12 8 10 30 47 48 82 l32 64 -25 -5 -24 -5 33 56 c19
31 30 57 26 59 -5 1 3 26 17 56 l26 53 25 -51 c14 -28 22 -52 18 -54z m1852
71 c7 -16 14 -34 16 -41 1 -7 9 -24 18 -37 20 -30 20 -35 2 -35 -10 0 -7 -14
14 -55 26 -51 27 -55 9 -55 -24 0 -24 0 11 -70 l30 -60 -119 0 -119 0 35 65
c32 61 33 65 14 65 -21 0 -21 1 4 50 29 58 30 60 11 60 -12 0 -11 7 4 38 11
20 24 52 31 70 14 39 22 40 39 5z m-3140 -2488 c0 -12 -13 -15 -58 -15 -77 0
-93 -16 -94 -97 -1 -103 23 -134 87 -113 34 11 35 13 35 66 0 41 4 54 15 54
12 0 15 -16 15 -80 0 -47 -4 -80 -10 -80 -5 0 -10 7 -10 15 0 19 -9 19 -34 0
-23 -17 -69 -20 -96 -5 -55 29 -53 241 2 263 7 3 43 6 81 6 53 1 67 -2 67 -14z
m230 0 c0 -10 -16 -15 -62 -17 l-63 -3 -3 -37 -3 -37 57 -3 c82 -4 86 -28 5
-28 l-61 0 0 -49 c0 -56 6 -61 81 -61 27 0 49 -4 49 -9 0 -14 -103 -23 -133
-12 l-27 11 0 118 c0 78 4 122 12 130 18 18 148 16 148 -3z m250 0 c0 -11 -12
-15 -45 -15 l-44 0 -3 -122 c-3 -108 -5 -123 -20 -126 -16 -3 -18 8 -18 122
l0 126 -45 0 c-33 0 -45 4 -45 15 0 12 19 15 110 15 91 0 110 -3 110 -15z
m300 0 c0 -11 -12 -15 -45 -15 l-44 0 -3 -122 c-3 -108 -5 -123 -20 -126 -16
-3 -18 8 -18 122 l0 126 -45 0 c-33 0 -45 4 -45 15 0 12 19 15 110 15 91 0
110 -3 110 -15z m80 -40 l0 -55 60 0 60 0 0 55 c0 48 2 55 20 55 19 0 20 -7
20 -141 0 -128 -2 -140 -17 -137 -15 3 -19 16 -21 71 l-3 67 -59 0 -60 0 0
-71 c0 -62 -2 -70 -17 -67 -16 3 -18 19 -21 141 -2 132 -2 137 18 137 18 0 20
-6 20 -55z m398 43 c-3 -8 -30 -15 -69 -18 l-64 -5 -3 -37 -3 -37 57 -3 c82
-4 86 -28 5 -28 l-61 0 0 -43 c0 -24 5 -48 12 -55 7 -7 38 -12 70 -12 76 0 74
-16 -3 -24 -47 -6 -66 -4 -85 9 -23 15 -24 20 -24 128 0 75 4 117 12 125 17
17 161 16 156 0z m312 -3 c0 -12 -14 -15 -65 -15 l-65 0 0 -40 0 -40 55 0 c42
0 55 -3 55 -15 0 -12 -13 -15 -55 -15 l-55 0 0 -49 c0 -56 6 -61 81 -61 27 0
49 -4 49 -9 0 -14 -103 -23 -133 -12 -34 13 -40 38 -35 156 2 71 7 98 18 105
8 5 45 10 83 10 53 0 67 -3 67 -15z m170 -107 l59 -123 0 123 c1 116 2 122 21
122 20 0 20 -5 18 -137 l-3 -138 -28 -3 c-26 -3 -31 2 -87 120 l-59 123 0
-123 c-1 -112 -3 -123 -18 -120 -16 3 -18 18 -21 128 -1 68 0 130 2 137 3 7
17 13 31 13 24 0 32 -12 85 -122z m338 110 c-3 -8 -30 -15 -69 -18 l-64 -5 -3
-37 -3 -37 57 -3 c82 -4 86 -28 5 -28 l-61 0 0 -43 c0 -24 5 -48 12 -55 7 -7
38 -12 70 -12 76 0 74 -16 -3 -24 -47 -6 -66 -4 -85 9 -23 15 -24 20 -24 128
0 75 4 117 12 125 17 17 161 16 156 0z m216 -7 c27 -30 25 -89 -3 -112 -22
-18 -22 -21 -8 -37 16 -19 42 -101 33 -109 -12 -13 -35 8 -41 39 -12 56 -31
78 -70 78 l-35 0 0 -55 c0 -48 -2 -55 -20 -55 -19 0 -20 7 -20 135 l0 135 73
0 c60 0 77 -4 91 -19z m266 4 c0 -12 -13 -15 -59 -15 -77 0 -91 -17 -91 -112
0 -55 4 -72 20 -88 24 -24 30 -24 75 -6 33 14 35 17 35 65 0 28 5 51 10 51 6
0 10 -33 10 -80 0 -47 -4 -80 -10 -80 -5 0 -10 7 -10 15 0 14 -3 14 -30 0 -58
-30 -111 -15 -129 36 -14 40 -14 139 -1 176 17 43 37 53 112 53 54 0 68 -3 68
-15z m111 -57 l36 -73 37 73 c25 50 42 72 55 72 15 0 11 -14 -30 -92 -38 -72
-48 -104 -49 -140 0 -36 -4 -48 -15 -48 -11 0 -15 12 -15 50 0 40 -10 69 -45
140 -38 76 -42 90 -27 90 12 0 29 -23 53 -72z m437 49 c45 -48 38 -208 -11
-242 -35 -24 -113 -20 -142 9 -45 45 -45 187 0 232 34 34 122 34 153 1z m252
8 c0 -12 -13 -15 -59 -15 -64 0 -71 -6 -71 -61 0 -29 0 -29 60 -29 47 0 60 -3
60 -15 0 -12 -13 -15 -60 -15 l-60 0 0 -65 c0 -51 -3 -65 -15 -65 -13 0 -15
21 -15 128 0 86 4 132 12 140 7 7 40 12 80 12 54 0 68 -3 68 -15z m250 -107
l59 -123 0 123 c1 116 2 122 21 122 20 0 20 -5 18 -137 l-3 -138 -28 -3 c-26
-3 -30 2 -87 120 l-59 123 0 -123 c-1 -112 -3 -123 -18 -120 -16 3 -18 18 -21
128 -1 68 0 130 2 137 3 7 17 13 31 13 24 0 32 -12 85 -122z m327 -3 c46 -132
50 -155 28 -155 -9 0 -19 17 -26 45 l-11 45 -59 0 -58 0 -12 -41 c-12 -37 -32
-59 -44 -47 -3 2 16 66 41 142 45 133 47 137 73 134 24 -3 30 -13 68 -123z
m253 110 c0 -11 -12 -15 -45 -15 l-45 0 0 -126 c0 -114 -2 -125 -17 -122 -16
3 -18 18 -21 126 l-3 122 -39 0 c-29 0 -40 4 -40 15 0 12 18 15 105 15 87 0
105 -3 105 -15z m80 -88 c0 -118 12 -147 61 -147 56 0 69 27 69 145 0 100 1
105 21 105 21 0 21 -3 17 -102 -3 -57 -11 -115 -18 -130 -26 -55 -134 -62
-167 -11 -13 20 -19 54 -22 135 -3 104 -3 108 18 108 20 0 21 -5 21 -103z
m393 88 c34 -33 28 -125 -8 -125 -8 0 -15 -4 -15 -10 0 -5 4 -10 9 -10 9 0 41
-83 41 -107 0 -17 -29 -17 -34 0 -2 6 -11 33 -21 60 -16 45 -18 47 -56 47
l-39 0 0 -55 c0 -48 -2 -55 -20 -55 -19 0 -20 7 -20 135 l0 135 74 0 c53 0 79
-4 89 -15z m251 0 c-4 -10 -25 -15 -67 -17 l-62 -3 -3 -37 -3 -37 57 -3 c82
-4 86 -28 5 -28 l-61 0 0 -49 c0 -56 6 -61 80 -61 70 0 70 -16 1 -24 -59 -7
-90 -1 -103 18 -13 19 -9 231 4 244 7 7 41 12 85 12 59 0 71 -3 67 -15z"/>
<path d="M3350 5470 c0 -33 3 -40 20 -40 13 0 22 9 26 25 8 34 -1 55 -26 55
-17 0 -20 -6 -20 -40z"/>
<path d="M3570 5469 c0 -33 3 -40 18 -37 12 2 18 14 20 41 3 32 0 37 -17 37
-18 0 -21 -6 -21 -41z"/>
<path d="M2606 5350 c-7 -39 -6 -41 22 -33 27 7 27 11 3 42 l-18 24 -7 -33z"/>
<path d="M2354 5354 c3 -9 9 -27 12 -40 7 -27 32 -32 41 -8 9 24 -14 64 -38
64 -15 0 -19 -4 -15 -16z"/>
<path d="M4941 5196 l-24 -26 24 -9 c20 -7 25 -5 27 10 2 11 2 26 0 35 -2 13
-8 11 -27 -10z"/>
<path d="M3372 5160 c-56 -25 -130 -90 -194 -168 -41 -51 -48 -66 -37 -73 29
-18 73 -7 168 43 109 58 103 58 223 12 l46 -18 61 31 60 31 -66 62 c-105 99
-174 120 -261 80z"/>
<path d="M3335 4923 c-82 -49 -126 -61 -189 -51 -56 8 -62 5 -101 -68 l-18
-34 55 -57 c30 -32 89 -112 132 -178 101 -155 139 -201 186 -225 78 -40 157
-22 230 52 45 45 66 72 204 268 85 120 86 95 -11 231 -44 62 -61 78 -92 88
-35 10 -43 9 -82 -14 -24 -14 -52 -25 -61 -25 -10 0 -18 -2 -18 -5 0 -3 16
-71 36 -151 31 -122 35 -147 23 -155 -8 -5 -19 -9 -26 -9 -13 0 -16 7 -64 204
-33 135 -35 140 -66 153 -49 20 -72 16 -138 -24z"/>
<path d="M4075 4811 c-28 -16 -73 -55 -100 -86 -47 -55 -48 -58 -30 -72 11 -7
37 -19 57 -25 36 -11 41 -9 91 25 102 70 136 73 259 16 49 -23 91 -39 94 -37
9 10 -114 145 -160 176 -66 44 -138 45 -211 3z"/>
<path d="M2764 4750 c-22 -11 -54 -34 -69 -50 l-29 -30 40 0 c28 0 58 -11 98
-35 32 -19 64 -35 70 -35 6 0 49 18 95 39 l84 39 -47 34 c-87 61 -168 74 -242
38z"/>
<path d="M1681 5044 c0 -10 4 -27 7 -37 6 -15 10 -16 25 -5 17 13 17 15 -7 37
-24 23 -26 23 -25 5z"/>
<path d="M5556 4966 c-21 -44 -20 -48 6 -44 28 4 52 47 36 65 -16 20 -24 16
-42 -21z"/>
<path d="M4642 3965 c13 -30 24 -32 37 -6 12 22 5 31 -25 31 -21 0 -23 -2 -12
-25z"/>
<path d="M4677 3923 c-10 -9 -9 -23 2 -23 5 0 11 7 15 15 5 15 -5 20 -17 8z"/>
<path d="M3300 1670 l0 -51 52 3 c47 3 54 6 62 31 16 44 -2 61 -63 65 l-51 3
0 -51z"/>
<path d="M4119 1704 c-9 -12 -14 -43 -14 -96 0 -88 12 -108 65 -108 49 0 64
21 68 96 4 92 -10 118 -64 122 -29 2 -45 -2 -55 -14z"/>
<path d="M4983 1655 l-21 -65 44 0 c24 0 44 3 44 7 0 18 -33 123 -39 123 -4 0
-16 -29 -28 -65z"/>
<path d="M5670 1670 l0 -50 48 0 c54 0 72 12 72 50 0 38 -18 50 -72 50 l-48 0
0 -50z"/>
</g>
</svg>
